<?xml version="1.0" encoding="UTF-8" standalone="no"?>
<!-- Created with Inkscape (http://www.inkscape.org/) -->

<svg
   xmlns:dc="http://purl.org/dc/elements/1.1/"
   xmlns:cc="http://creativecommons.org/ns#"
   xmlns:rdf="http://www.w3.org/1999/02/22-rdf-syntax-ns#"
   xmlns:svg="http://www.w3.org/2000/svg"
   xmlns="http://www.w3.org/2000/svg"
   xmlns:sodipodi="http://sodipodi.sourceforge.net/DTD/sodipodi-0.dtd"
   xmlns:inkscape="http://www.inkscape.org/namespaces/inkscape"
   width="1168.5103"
   height="1046.324"
   id="svg4259"
   version="1.1"
   inkscape:version="0.48.5 r10040"
   sodipodi:docname="chaptL.svg">
  <defs
     id="defs4261" />
  <sodipodi:namedview
     id="base"
     pagecolor="#ffffff"
     bordercolor="#666666"
     borderopacity="1.0"
     inkscape:pageopacity="0.0"
     inkscape:pageshadow="2"
     inkscape:zoom="0.46443544"
     inkscape:cx="-109.75114"
     inkscape:cy="198.82045"
     inkscape:document-units="px"
     inkscape:current-layer="g4792"
     showgrid="false"
     inkscape:window-width="2560"
     inkscape:window-height="1377"
     inkscape:window-x="-9"
     inkscape:window-y="-9"
     inkscape:window-maximized="1"
     fit-margin-top="0"
     fit-margin-left="0"
     fit-margin-right="0"
     fit-margin-bottom="0" />
  <metadata
     id="metadata4264">
    <rdf:RDF>
      <cc:Work
         rdf:about="">
        <dc:format>image/svg+xml</dc:format>
        <dc:type
           rdf:resource="http://purl.org/dc/dcmitype/StillImage" />
        <dc:title></dc:title>
      </cc:Work>
    </rdf:RDF>
  </metadata>
  <g
     inkscape:label="Layer 1"
     inkscape:groupmode="layer"
     id="layer1"
     transform="translate(146.14102,9.7078158)">
    <g
       id="g4797">
      <g
         transform="translate(144.28571,-12.857143)"
         id="g4792">
        <g
           id="g4278"
           transform="translate(-151.42861,-208.57143)"
           style="fill:#DCDCCC;fill-opacity:1">
          <path
             style="fill:#DCDCCC;fill-opacity:1"
             d="m 194.84633,1257.742 c -63.92753,2.9939 -110.999526,-72.0086 -87.95583,-130.1011 42.1896,-60.5193 -77.312296,21.0992 -41.789696,-41.4699 15.4289,-17.2595 84.855896,-39.0878 22.7277,-40.3834 -44.2477,-12.6668 -75.7948,42.7066 -106.7853,39.629 -7.6058,-58.4322 64.3796,-86.13452 111.9462,-92.64906 7.644996,-0.68301 -28.7374,-27.72183 10.784796,-26.5415 44.2363,-9.21315 -19.559596,-68.935 -51.966296,-54.50452 -43.5132002,-32.22985 -65.5852,80.47576 -82.8542,19.40262 32.7698998,-64.31012 -67.6904,-42.85651 -90.358284,-11.67585 -37.5872,9.65151 -6.841,-52.67735 17.13318,-55.45665 38.491004,-31.46056 104.39870379,1.1312 119.836204,-56.54335 34.8955,4.68611 1.9526,60.37227 47.1792,65.85082 C 105.6824,907.46542 100.6758,826.29947 120.0963,810.56108 98.688104,765.26679 64.943904,729.9028 37.217004,688.21415 c -33.9157002,-19.31899 -109.7314,-30.71068 -102.57,-79.13465 33.7098,7.83041 68.6039998,22.4727 108.4762,13.4325 35.1819,25.52934 13.9818,-48.52367 5.9778,-63.12796 -48.72240021,-38.15162 -5.0736,-103.86771 39.6472,-110.81651 19.587696,-35.4085 -29.9461,-100.8433 -67.7378,-65.3641 -46.068,16.2653 8.061,-67.0695 42.0045,-53.3513 52.336296,-3.353 -47.857,-51.4652 -52.6279,-75.5043 -31.4296,-50.8161 38.9444,-28.1712 61.1129,-14.0549 38.410696,2.0099 60.517296,71.5395 83.876796,15.4717 54.20476,-35.5622 -5.4358,77.7637 35.22918,54.3985 32.3526,-45.9903 102.39673,-43.8597 127.43403,-91.8703 30.53769,-25.0844 9.27004,31.3449 44.47399,8.656 32.34808,-7.1046 66.29026,-3.277 99.49549,-4.1954 29.41659,-0.2781 67.19385,9.1497 96.87702,-3.3406 35.19033,-0.2141 -27.9374,51.407 26.76176,41.5066 46.05254,24.1379 92.82941,57.0117 147.28509,47.6085 47.254,0.046 111.14281,16.6131 128.90371,68.199 23.2228,21.9631 7.5166,64.314 -14.9422,21.4098 -29.5625,-40.9414 -84.98181,-25.2199 -122.65881,-29.7665 -13.0709,10.9934 11.0479,58.4279 26.3608,71.5555 42.26011,4.4121 89.96311,44.24261 80.62381,87.73318 -10.3813,7.4325 -37.4585,-56.71416 -41.88721,-25.28063 20.57881,37.85361 -5.5404,82.35716 -9.6728,111.14704 51.53241,5.39518 101.80001,-13.29195 148.37321,-36.23881 26.5544,-9.64196 102.36013,-45.4555 101.47063,-10.93541 -69.20143,34.64585 -136.21213,74.63281 -194.65813,125.89144 -47.89481,35.71033 -103.18011,60.80093 -161.60307,72.65482 10.21123,30.67033 73.65456,-23.20408 66.84036,30.01097 9.1859,48.29046 110.42581,55.70655 85.11761,103.04129 -23.7277,-42.94823 -90.15511,-38.95888 -131.82376,-49.15262 -62.57022,-34.07864 -8.31245,51.59246 -20.64846,85.03469 -5.66829,45.62434 -1.86357,99.89491 36.24572,131.40331 31.32729,38.4495 -47.82415,25.6565 -57.07308,-1.248 -41.27192,-41.8658 24.58777,85.6394 -24.67758,43.5844 -35.41957,-8.7393 -20.7596,-93.3943 -59.12673,-43.0268 -3.27491,9.3982 31.62885,34.4729 -2.25102,45.9296 21.21777,17.1335 37.1172,54.213 -6.75445,39.5417 -36.25634,-1.8772 -21.93108,-90.5258 -58.26823,-37.5697 -3.04354,28.2438 -11.68226,85.0713 -42.34634,36.5583 -10.12758,-16.976 -6.0371,-39.3915 -20.53665,-13.0079 -4.44833,-25.4499 -5.08219,-35.0221 -38.22922,-29.1261 -44.2179,1.3043 -87.04349,-10.908 -132.20992,-9.2378 -47.78954,-7.3216 -111.35335,12.8196 -120.45805,67.4284 -18.8422,40.6304 76.33828,73.8893 39.80289,24.4046 7.5791,-45.7428 84.97137,-37.696 77.8806,9.9067 8.37758,39.7611 -36.92863,61.5324 -69.88056,58.3696 z m -15.29913,-25.3821 c -20.5855,-18.9774 -22.8651,8.2798 0,0 z m 32.19481,-39.9116 c 30.10764,-0.997 3.85916,-34.7574 -6.40391,2.2639 l 4.02437,2.2361 2.37954,-4.5 z m -80.29471,-6.6953 c -8.7679,-50.3576 34.6705,-93.0844 80.78615,-104.2124 44.3246,-6.7699 83.5994,-18.2693 123.66742,-4.2665 17.99466,4.3202 93.29543,0.5238 38.97853,-4.8426 -30.86073,-11.4612 -86.23304,-15.2574 -121.8735,-39.6968 -45.10416,-24.5516 -72.9857,-91.3384 -38.2881,-134.19217 26.48655,-9.90464 45.96674,-30.19316 5.62853,-13.67178 -36.19706,1.39913 -28.76544,103.40312 -54.60383,36.85443 -41.5881,-15.4468 27.00421,33.36406 -4.2151,34.70743 -33.1592,-26.3081 -47.6613,-73.13185 -34.4405,-112.82253 18.1151,-18.36044 38.4744,-47.60391 6.7383,-19.95475 -41.071096,38.30331 -22.8774,109.01791 16.994,140.131 48.35152,20.75093 0.5929,32.95646 -17.8657,9.36011 -29.292,27.38216 58.33328,27.24366 76.18395,48.74636 36.75184,-0.2313 41.24423,48.1929 -0.54009,21.5452 -43.98306,-33.4072 -103.32396,-48.59619 -155.751056,-25.5972 -30.8187,3.072 -71.6568,52.3477 -18.5204,19.8274 33.4574,-12.2691 72.913996,-18.0388 106.020396,-2.1953 29.1828,34.9759 -100.148296,58.1912 -36.7098,48.9925 30.0022,-13.6913 89.62859,-5.0062 34.4139,18.0021 -17.0821,16.4723 -32.4383,80.2478 -6.6031,83.2855 z m 347.37124,-58.3047 c 20.02997,-25.5013 10.52601,-49.6124 -8.91537,-19.7561 3.97415,4.5348 2.45234,45.8634 8.91537,19.7561 z m 75.68847,-17.9072 c 26.53557,-50.9857 -57.32345,-68.969 -91.88067,-87.2165 -34.25041,-7.0299 -95.88711,-44.86198 -115.51636,-25.59835 43.36088,23.93645 95.84945,25.27925 139.23635,49.60185 35.84883,7.084 65.07306,56.4957 68.16068,63.213 l 0,0 z m -93.86068,-35.7928 c 24.23882,-51.9849 -111.19671,2.6597 -32.8,-0.3566 10.77766,1.0474 22.09374,2.7509 32.8,0.3566 z m 161.20426,-1.8103 c -9.00031,-31.9651 30.11233,-109.9014 30.49218,-41.8915 8.75074,28.5981 33.16978,31.8974 14.81132,0.6893 -18.29163,-26.0244 -2.20005,-109.37631 -16.32385,-104.2215 -8.60009,47.68108 -59.801,94.1246 -36.23395,145.1464 l 4.79634,3.0557 2.45796,-2.7784 0,0 z m -82.50885,-36.7301 c 0.11231,-21.38 28.84243,-49.1167 38.19204,-78.93334 35.32815,-14.51903 -12.24398,51.79694 -15.93746,64.75674 -20.02441,20.5665 39.00289,-5.9479 31.00002,-24.66808 30.43915,-20.14374 14.97079,-52.07509 44.04658,-76.31325 -33.32651,-11.30923 22.87746,-45.38517 -16.38951,-57.4853 6.98144,-21.79633 17.74291,-52.07575 -13.37256,-40.89016 7.28163,-25.59046 -8.59587,-35.06577 -29.53452,-42.61819 -55.37823,-21.03288 11.43256,71.87488 -36.18587,29.83093 -24.08923,-16.88649 22.25551,-36.91411 -23.31413,-34.95082 -46.13986,-2.68231 -92.97449,-21.94012 -134.82793,-10.24131 -42.38084,-17.56061 39.84804,-38.71813 58.5767,-16.08493 52.32959,7.59468 104.99016,16.01208 157.96102,12.3381 54.43967,-2.71522 108.71713,-17.92079 157.08654,-44.51321 53.63221,-25.04455 99.99551,-60.11948 147.20371,-96.23613 11.9917,-15.00786 76.6946,-38.36817 22.6134,-23.62672 -50.26,16.6147 -97.3103,43.92117 -151.29861,35.96024 -25.1964,38.37277 -59.2436,76.04561 -102.15133,95.99917 -29.62555,11.46745 -70.01805,30.55852 -98.1635,20.53909 13.0443,-8.08175 22.24012,-21.9833 36.13797,-20.76581 -22.8113,-15.54899 73.22476,-4.78134 13.57487,-14.25152 13.141,-12.89909 19.1423,-49.53914 55.30276,-36.97381 0.12537,-9.80123 -14.9134,-3.67089 1.76531,-15.15667 -34.96687,-9.83385 -64.32474,-25.59646 -78.77349,22.90367 -43.16741,49.22851 -113.03145,62.83584 -174.60396,52.20182 -7.72672,-12.03925 58.20611,-8.89734 69.47707,-24.89708 56.40549,4.88932 -49.20945,-17.84946 0.74703,-37.16112 37.86155,-8.91651 -8.51744,15.49378 33.3326,11.47454 34.83417,-3.99246 -34.33181,-13.49361 17.85617,-11.64007 23.10036,-7.17047 -59.95826,-2.76687 -59.02814,-37.67537 -12.65079,-26.33416 -23.22293,48.7467 -55.65715,46.18544 -32.34972,6.78482 -91.89915,48.64719 -112.18584,33.83301 24.10926,-17.2123 85.13137,-32.04822 43.54677,-62.15398 16.6391,28.23047 -15.32616,35.60666 -26.89889,7.02072 -12.87875,34.32579 -27.36272,-0.49615 -25.04047,-20.1485 -21.07541,-34.34404 -17.60864,33.31475 -2.17309,15.53136 -10.60944,30.60541 -34.573,-7.49041 -36.35784,35.6195 -13.28766,23.67968 -4.68561,92.8153 -1.80004,27.83529 27.33769,-68.46399 -4.43681,96.8449 13.34772,24.07358 10.08473,-39.31278 5.91433,86.61264 14.48397,66.23635 -13.47728,-16.74166 10.4842,-116.16698 14.09351,-56.41706 -21.79334,20.44683 19.75856,3.84347 4.4704,39.94165 8.32993,31.72062 2.80515,12.31141 13.85572,1.06732 2.11134,15.842 11.25621,82.17439 15.6481,29.19431 9.07805,18.46237 5.67552,51.49423 17.0823,13.18566 26.85934,34.51851 -10.04497,93.09485 -3.13826,112.81434 -0.40109,10.23121 -84.39265,13.143 -51.16248,45.91316 24.44498,-34.77599 84.58972,-22.07954 89.11753,-79.46617 18.44246,-15.91584 32.11845,-8.31638 16.33752,-41.44699 0.15989,-28.06322 -12.88366,-35.62717 -13.85767,-58.47095 -18.1615,19.49188 0.043,-44.91174 11.89457,-17.55385 33.81967,-23.69935 -27.69029,64.29271 11.82439,10.57521 22.63129,-13.50308 -20.47649,44.41117 14.4064,4.19603 7.00861,-0.24763 -7.14696,38.18464 12.9104,6.60146 11.42092,3.02977 -20.02097,65.31542 7.4882,18.96252 17.53901,-22.36626 -5.56088,84.61956 7.9106,27.5988 5.02599,-31.93204 24.57766,-31.55746 8.93622,-0.0713 -13.01008,53.93781 35.34352,-60.50312 17.45401,-2.9017 -13.07273,38.75634 -3.83166,11.49764 11.00232,-2.36418 -4.53527,16.5032 -11.50851,59.94372 7.86628,19.5196 14.38804,-1.56285 -21.78799,49.53503 7.11323,26.82211 -10.24883,21.32662 -13.35925,44.16427 9.86238,13.08626 -9.39504,33.50108 6.57968,85.72669 -42.92426,100.29009 14.88746,-0.4756 35.54056,20.7444 49.25067,13.9695 z m 35.01172,-92.25173 c -9.13615,-18.57051 20.70896,-86.14837 24.49287,-39.51701 0.68491,14.29597 -3.62531,47.58666 -24.49287,39.51701 z m -205.50713,-6.88215 c 14.46565,-16.6718 19.27098,-105.01665 19.6037,-43.8509 -4.80592,32.07279 23.98244,-23.26486 7.86024,20.92145 -14.67685,2.71612 -14.26997,26.49029 -27.46394,22.92945 z m 214.5772,-61.80849 c -37.26522,-3.05483 -1.85132,-90.79174 7.33629,-23.36427 -1.6872,3.26947 6.59925,34.58596 -7.33629,23.36427 z m -93.39612,117.07084 c 28.61978,-32.98002 -27.43744,9.17113 0,0 z M 279.71737,972.39484 c 7.23263,-47.39196 73.48528,-5.51598 66.60668,-46.96386 10.88033,-17.21019 -25.85518,29.90413 -41.95508,11.6658 -27.12892,-9.68798 -62.7637,40.12421 -24.6516,35.29806 z m -55.97352,-36.01073 c -2.84742,-20.04451 -18.41261,5.23433 0,0 z m 22.43165,-2.35705 c 16.5639,-10.82833 59.29386,-12.06327 17.16166,-20.91604 -14.13476,-4.85605 -39.39817,26.93752 -17.16166,20.91604 z M -2.7954962,908.08484 c 35.8937002,-30.64716 -26.2514998,7.56357 0,0 l 0,0 z M 235.83217,907.46536 c -3.34796,-21.95447 -16.54312,15.9821 0,0 z M 93.215304,898.92639 c -32.3038,-10.19842 -66.5699,-26.99425 -82.4158,-57.30661 18.5185,52.40845 -83.8827,-2.13288 -80.5511,29.34361 29.804,1.63804 64.4119998,4.69161 88.9809,5.19494 -8.0753,25.82096 53.5626,12.30356 73.986,22.76806 z m 88.881026,1.03555 c -3.78773,-19.11293 -14.85643,3.08207 0,0 z m 91.75,-7.89121 c -4.87435,-13.56274 -10.48773,9.23168 0,0 z M 155.8463,891.93419 c -9.9586,-20.51172 -13.4957,8.03005 0,0 z m 157.86765,-2.48791 c 13.39258,-28.33501 -35.98703,-12.13484 -25.79088,-33.498 -8.52817,9.13526 -56.7502,30.2306 -20.30786,27.04252 13.00144,5.06961 34.27865,16.41203 46.09874,6.45548 z M 201.13088,879.9862 c 9.93915,-9.01403 -37.45058,-54.20095 -45.96548,-42.99146 4.0493,17.49711 26.65298,53.80372 45.96548,42.99146 z m 253.05048,-6.74922 c -3.7372,-19.46379 -6.55189,14.5168 0,0 z M 224.34633,858.44829 c -10.52437,-17.75935 -7.87145,17.13739 0,0 z m 216.19278,1.25 c 15.65362,-39.7691 -14.25099,-17.1218 0,0 z m 255.94856,-27.25772 c -10.4483,-25.22553 -16.40327,0.21394 0,0 z m -503.02612,-9.25759 c 12.86446,-11.82021 61.85854,-6.81283 14.20154,-19.47069 -17.92523,-11.06332 -58.45789,28.13593 -14.20154,19.47069 z m 62.88478,-3.23469 c -7.30976,-12.9762 -5.73982,12.66769 0,0 z m 34.95544,1.4017 c 1.78571,-33.42992 -14.53719,-22.66318 -1.8602,1.5983 l 1.8602,-1.5983 z M 411.2663,810.03672 c 5.20182,-23.69689 -17.20008,6.34919 0,0 z M 171.469,788.22745 c 26.93883,3.62603 40.11319,-2.28128 8.2881,-15.97033 -28.7305,-11.93729 -64.2881,29.11555 -8.2881,15.97033 z m 112.62216,-6.28849 c -5.06295,-26.44761 -4.02021,25.38478 0,0 z m -158.24486,0.99576 c -14.824,-38.83101 -33.397796,-92.93094 1.4947,-128.41097 10.4328,10.14052 -7.1755,28.32888 10.3973,37.93239 3.2279,-16.14611 27.8038,-47.7215 1.3163,-22.00637 6.6611,-18.11221 -0.883,-69.93758 14.9695,-24.50144 6.677,-65.77695 -36.8956,-1.7143 -52.0438,18.93999 -2.193296,21.28611 2.0318,59.87807 -9.414796,15.22381 -9.031,-16.60996 -18.1086,-117.51401 -17.9841,-82.03788 -12.0924,40.43919 21.7161,98.03545 16.1892,122.26309 C 67.024504,686.648 38.583004,648.64958 -0.51049621,647.75031 26.275204,640.4076 69.783304,660.30615 28.242704,637.57444 c 26.5384,7.86791 44.3441,19.29472 12.653,-5.61633 -23.2748,-8.8699 -55.4492,6.86052 -71.7865,6.26461 32.4672998,29.99867 91.5415,19.38803 105.7255,75.59819 30.859096,12.46479 33.247896,53.41966 51.011596,69.11381 z M 202.84633,765.2587 C 195.68108,739.9 126.9543,729.6302 139.6318,761.69622 c 21.746,-11.99487 44.10787,-1.428 63.21453,3.56248 z m 55.98131,-34.78789 c 2.41491,-23.19651 20.61016,-97.99775 3.08324,-41.09123 -3.40711,7.14401 -10.81416,41.35747 -3.08324,41.09123 z M 671.9023,707.10405 c 3.24999,-15.08521 -17.55901,5.4266 0,0 z m -143.31722,-8.7831 c -13.85703,-12.69103 -53.96171,5.19052 -5.08883,0.35662 l 5.08883,-0.35663 0,1e-5 z m -329.26574,-5.28762 c -2.52762,-21.14043 -13.5127,6.2322 0,0 z m 213.47764,-14.52558 c -11.6248,-25.19947 -33.7685,-22.48115 -8.86611,-5.55946 -2.76052,6.98232 5.38345,8.47648 8.86611,5.55946 z m 21.01417,-14.49372 c 1.63674,-22.55965 -14.88805,9.85559 0,0 z m 102.07515,-9.89702 c 5.53245,-31.40159 -21.93801,2.08578 0,0 z M 347.84633,651.9506 c -18.17892,-34.97629 -19.50741,6.21675 0,0 z m 226.80322,0.37234 c -6.75346,-17.90996 -12.06262,9.2518 0,0 z m 157.19681,-5.98165 c 46.1235,-29.16382 -56.66851,-0.008 0,0 z M 225.73583,627.13044 c 14.28031,-58.13985 -12.90505,-7.83105 0,0 z m 286.04241,-0.0865 c 4.40215,-16.15585 -13.4108,7.49906 0,0 z M 731.44626,609.5079 c 32.827,-25.59841 52.2266,-133.98553 -11.0999,-120.65839 -20.32665,9.24883 -4.5423,31.93916 -26.41335,43.74375 -1.97868,2.98436 14.19943,26.7508 -6.64579,28.51479 15.02768,-3.36796 17.49837,43.91456 14.55911,36.8143 -8.14162,35.02521 35.43043,-52.38454 26.55943,-1.4259 1.7805,4.01442 -8.3327,18.50283 3.0405,13.01145 z m -386.59993,-0.98703 c -7.02631,-16.04363 -23.49244,9.5445 0,0 z M 502.0678,592.1331 c 2.0911,-18.29449 18.94615,-39.11151 -6.69888,-12.08162 -6.9245,9.96409 11.29061,42.83191 6.69888,12.08162 z m -122.22147,11.65504 c -28.56554,-22.96762 -23.69273,-68.40702 6.11111,-87.9862 10.23443,-23.37735 -45.65874,17.19731 -37.03105,38.48037 -3.14162,20.58062 7.65502,51.34063 30.91994,49.50583 z m 381.12893,-3.58985 c 39.26001,-25.09578 9.9049,-110.73682 11.8328,-39.38282 1.4801,7.67543 -29.5412,57.42284 -11.8328,39.38282 z m -457.8106,-5.75 c -8.1144,-65.88858 72.00625,-115.53212 130.47345,-97.85135 35.63877,28.04906 -45.34681,-4.78031 -12.85049,23.33863 -35.43495,-0.54609 -56.78524,77.33975 -22.91809,18.70091 32.23452,-18.0427 26.97876,-3.88105 -0.49654,9.97971 -21.08459,49.91149 33.6363,-44.57071 58.73414,-2.6679 24.90472,-1.79071 33.56346,-10.0541 15.73798,-17.99761 40.38384,-38.7681 71.98039,-6.00065 105.29105,21.87349 42.43384,-6.92401 18.99121,-34.42209 -3.28983,-44.87588 -10.04545,-4.84992 -6.6285,-14.43353 -23.60373,-17.43058 4.8685,-15.42645 -67.03266,29.04695 -72.69062,-21.37618 -50.00566,-3.2377 22.01004,-45.5724 46.29729,-25.5959 59.25257,16.2587 -9.30403,-23.0633 -22.81729,-28.5973 35.61219,-15.8678 76.18297,79.07071 54.90614,13 -29.5294,-47.347 -98.4845,-27.7207 -144.24735,-43.9746 -33.10702,-14.4462 -104.0927,-97.6169 -87.84444,-85.7809 13.94332,51.0289 55.00911,97.7105 108.71234,106.1259 -11.60659,17.3926 -78.54103,-10.3181 -94.56344,-39.8704 -6.85553,-23.3156 -76.35446,-68.0141 -76.07367,-45.5 34.03049,33.2593 62.71988,75.8153 113.01935,85.3987 25.09868,19.2284 50.51291,38.0749 77.91787,28.3597 -23.25788,25.2391 -63.29248,12.787 -86.80825,29.4864 -7.59661,-34.5399 -63.33268,-24.4274 -71.06873,-45.4189 26.02994,8.4369 50.23526,-9.8232 7.36446,-9.1849 -25.77839,-0.01 -87.43478,-63.1037 -44.47809,-4.5982 -15.77965,29.3226 65.28525,21.6532 22.04816,36.6882 36.78698,7.6443 58.71257,42.31928 103.49889,28.2013 26.90995,-16.7397 40.22645,15.26232 -1.06889,15.0792 -22.64997,-1.00709 -67.45381,56.14736 -69.84841,33.458 7.26782,-11.73819 -24.51735,7.81712 -4.7857,-16.33596 -17.63706,19.18498 -1.69204,-25.49373 -24.28276,7.82781 -6.80709,25.98261 2.34549,67.1049 16.72138,91.8479 l 2.4984,-0.65827 0.51542,-1.65102 0,0 z M 412.34633,484.22468 c -1.46357,-12.91129 53.62896,-31.96095 32.9788,-0.24209 -10.8969,1.32823 -22.0484,1.08072 -32.9788,0.24209 z m 37.5,108.8125 c -9.31045,-15.72294 -14.20213,6.06905 0,0 z M 134.3849,571.81123 c 39.8348,3.16935 101.27236,-54.56021 90.02129,-73.85472 -29.20828,40.07166 -86.54799,64.78158 -135.477486,54.99178 -20.7631,-10.1874 -62.5862,-48.79331 -29.6266,-4.33839 18.2385,20.81355 48.373596,30.31411 75.082796,23.20133 z m 408.46143,-2.91931 c -18.72473,-28.51511 -76.01499,-26.70356 -22.47187,-4.37612 7.04624,1.02481 16.29394,5.97018 22.47187,4.37612 z M 88.867104,525.8266 C 102.563,495.54806 122.5494,444.56793 120.5793,396.12803 c 1.1147,-46.4537 -10.5824,-95.5786 -48.475496,-124.5983 46.382896,18.9438 55.415496,78.2414 57.903096,123.0922 7.4947,19.6494 -0.4003,-73.7517 9.1056,-18.9958 10.3964,16.9779 6.235,-19.4314 17.2939,-11.7277 17.835,-26.3867 -0.8293,-88.1698 0.2362,-95.1741 -22.3751,13.7767 0.3059,106.7948 -29.5128,60.8586 15.7232,-49.0112 -67.987996,-89.0211 -84.181396,-78.6499 11.547,25.718 63.287996,63.601 62.628196,111.997 -11.371796,-16.5015 -81.569196,-24.6246 -63.379496,-2.9817 47.0578,-7.6707 82.854196,53.3802 64.102696,94.8411 -8.530996,13.9792 -37.627296,56.18511 -22.057196,76.56118 l 4.6245,-5.52401 0,0 z m 551.479226,1.53332 c 4.94611,-21.81376 -26.85597,12.30233 0,0 z M 130.6588,510.01911 c -7.8404,-36.8561 -20.6244,-16.17744 0,0 z m -80.032296,1.85041 c -4.1436,-20.68792 -10.9313,7.9613 0,0 z m 139.771716,-2.42123 c 30.19495,-8.96509 66.24168,-78.52956 20.63128,-25.81897 0.77164,3.21091 -45.2227,42.5601 -20.63128,25.81897 z M 70.210404,508.30872 c 3.5407,-37.12527 -12.9495,17.24611 0,0 z M 175.2539,495.91286 c -3.9112,-11.43676 -14.7052,8.75368 0,0 z M 62.162104,480.82293 c 35.1755,-20.7452 -21.8917,-3.86503 0,0 z m 79.521696,-3.75304 c 4.3108,-14.25686 -12.4623,2.01549 0,0 z m 455.0364,-5.05729 c 28.82985,-12.01357 31.06212,-103.29797 10.12613,-33.90077 -28.44243,61.15482 4.53555,-36.3017 3.99341,-55.7847 2.46246,-41.8659 -21.04501,-97.556 -60.77102,-105.5611 36.10393,35.9022 52.1644,87.2931 44.44251,136.2288 2.43529,13.1209 -21.65774,73.89466 2.20897,59.01777 z m 34.54434,5.3287 c 7.2119,-13.24647 -14.58204,0.37627 0,0 z M 523.7623,472.05439 c 7.28967,-20.55576 -17.72909,9.32852 0,0 z m 269.11917,-0.64848 c -17.56621,-16.11468 -57.83071,-16.35418 -66.83511,-42.25758 -0.3928,29.8373 43.0095,42.90281 66.83511,42.25758 z m -110.82009,-8.86328 c 24.53784,4.9533 52.17028,-29.6391 12.661,-6.4861 -5.48585,-3.6859 -40.62217,9.2026 -12.661,6.4861 z m -293.19807,-23.1761 c 7.95079,-38.4971 -94.99111,-35.9904 -25.32393,-20.8179 12.53169,-7.5471 22.92909,40.7595 25.32393,20.8179 z m -144.16937,0.067 c 1.47061,-21.0224 -15.71089,8.4608 0,0 z m 465.00716,-0.4117 c 32.60786,-26.6024 -17.16951,-1.5061 0,0 l 0,0 z m -522.35477,-3.985 c 11.29411,-18.4619 -23.06413,9.1212 0,0 z m 437.80527,-42.3368 c 6.05099,-29.1532 -16.36384,-71.1745 -7.33676,-14.4753 1.47341,1.9209 0.65602,27.6927 7.33676,14.4753 z m -412.64101,-14.3197 c -2.01339,-18.3634 -14.30024,7.7473 0,0 z m 212.33574,-11.3802 c -34.58197,-29.3417 -18.67479,-82.1882 -2.91233,-102.6977 -61.37443,11.2792 -49.2101,88.4951 2.29049,103.6795 l 0.62182,-0.9818 2e-5,0 z m -184,-11.5523 c 0.18002,-14.14 -12.73048,6.0914 0,0 z m 519.00003,-3.0838 c 46.79991,-16.8056 -61.64276,2.7932 -76.94507,-13.7979 -12.42386,-17.1764 -60.73737,-38.3721 -20.32061,-10.7521 26.62611,25.4233 62.22918,28.5067 97.26568,24.55 z m 12.6549,-21.9594 c -23.3263,-17.2555 -38.7773,8.3595 0,0 z m -155.65493,-35.8344 c -16.2622,-15.512 -54.95321,-27.2853 -13.77009,-4.2002 3.6304,-0.473 10.7254,9.8182 13.77009,4.2002 z m -351.344,-18.1736 c 18.55663,-6.192 75.65172,-30.7763 22.344,-13.9291 -4.3353,-0.709 -48.38416,20.5507 -22.344,13.9291 z m 59.59865,-14.0297 c -5.02326,-39.9796 -8.08966,32.8866 0,0 z m 204.24535,-1.8004 c -13.6243,-16.3302 -29.78105,6.2447 0,0 z m -114,-13.529 c 26.94703,2.0275 60.73496,-9.1531 16.32202,-6.7201 -18.13004,-0.8667 -81.9984,8.0763 -27.43106,7.0725 l 11.10904,-0.3524 0,0 z m 82.68388,-4.594 c -13.84521,-13.4202 -48.03577,-0.018 -7.18388,1.5043 l 4.79903,0.739 2.38485,-2.2433 0,0 z"
             id="path4280"
             inkscape:connector-curvature="0" />
        </g>
      </g>
    </g>
  </g>
</svg>
