<?xml version="1.0" encoding="UTF-8" standalone="no"?>
<svg
   xmlns:dc="http://purl.org/dc/elements/1.1/"
   xmlns:cc="http://creativecommons.org/ns#"
   xmlns:rdf="http://www.w3.org/1999/02/22-rdf-syntax-ns#"
   xmlns:svg="http://www.w3.org/2000/svg"
   xmlns="http://www.w3.org/2000/svg"
   xmlns:sodipodi="http://sodipodi.sourceforge.net/DTD/sodipodi-0.dtd"
   xmlns:inkscape="http://www.inkscape.org/namespaces/inkscape"
   width="181pt"
   height="32pt"
   viewBox="0 0 181 32"
   version="1.1"
   id="svg3416"
   inkscape:version="0.48.5 r10040"
   sodipodi:docname="para.svg">
  <metadata
     id="metadata3442">
    <rdf:RDF>
      <cc:Work
         rdf:about="">
        <dc:format>image/svg+xml</dc:format>
        <dc:type
           rdf:resource="http://purl.org/dc/dcmitype/StillImage" />
        <dc:title></dc:title>
      </cc:Work>
    </rdf:RDF>
  </metadata>
  <defs
     id="defs3440" />
  <sodipodi:namedview
     pagecolor="#ffffff"
     bordercolor="#666666"
     borderopacity="1"
     objecttolerance="10"
     gridtolerance="10"
     guidetolerance="10"
     inkscape:pageopacity="0"
     inkscape:pageshadow="2"
     inkscape:window-width="2560"
     inkscape:window-height="1377"
     id="namedview3438"
     showgrid="false"
     inkscape:zoom="4.9130248"
     inkscape:cx="97.798139"
     inkscape:cy="48.520155"
     inkscape:window-x="-9"
     inkscape:window-y="-9"
     inkscape:window-maximized="1"
     inkscape:current-layer="svg3416" />
  <path
     style="fill:#DCDCCC;fill-opacity:1"
     d="m 67.424206,8.5324433 c -0.80469,0.004 -1.61,0.1075 -2.4,0.35 -3.09001,0.87 -5.265,3.7350027 -5.825,6.8249997 -18.73,0.06 -37.619999,0.415 -56.3499993,0.375 l 0,0.875 c 18.8000003,0.05 37.5999993,0.38 56.3999993,0.3 0.75,4.087504 4.64176,7.270848 8.775,7.3 0.27555,0.002 0.54813,0.002 0.825,-0.025 3.6,-0.05 6.71,-2.214996 9,-4.825 2.39738,3.345172 6.344456,5.261409 10.175,4.825 0.327408,-0.02704 0.652774,-0.08981 0.975,-0.15 1.643633,-0.307004 3.204468,-1.035508 4.525,-2.325 3.49,3.28 9.175004,3.365 12.725004,0.125 1.905,1.4775 4.31095,2.438124 6.725,2.425 0.80468,-0.0044 1.61,-0.1075 2.4,-0.35 3.09,-0.87 5.265,-3.735 5.825,-6.825 18.72999,-0.06 37.62,-0.415 56.35,-0.375 l 0,-0.875 c -18.8,-0.05 -37.60001,-0.38 -56.4,-0.3 -0.75,-4.0875 -4.64176,-7.2708507 -8.775,-7.2999997 -0.27556,-0.0019 -0.54813,-0.0019 -0.825,0.025 -3.6,0.05 -6.71,2.2149997 -9,4.8249997 -2.37697,-3.31669 -6.343444,-5.2180487 -10.175004,-4.8249997 -0.253519,0.02601 -0.49811,0.05356 -0.75,0.1 -0.17642,0.03253 -0.349792,0.05723 -0.525,0.1 -0.06792,0.01504 -0.132411,0.03341 -0.2,0.05 -1.457595,0.35782 -2.840442,1.068282 -4.025,2.2249997 -3.49,-3.2799997 -9.175,-3.3649997 -12.725,-0.125 -1.905,-1.4774997 -4.31095,-2.4381297 -6.725,-2.4249997 z m -1.125,1.7249997 c 0.19144,-0.0126 0.405611,-0.007 0.6,0 3.21,0.45 5.8,2.74 7.55,5.35 -1.15251,0.0675 -2.296409,0.085 -3.45,0.1 -3.46079,0.045 -6.934989,-0.0725 -10.4,-0.05 0.36562,-2.887497 2.828391,-5.21129 5.7,-5.4 z m 12.075,0.075 c 3.43313,-0.214691 6.72,2.352503 8.55,5.375 -2.56,0.07 -5.11499,-0.055 -7.675,0.075 -1.57,-1.26 -2.87,-2.805004 -4.3,-4.225 1.125,-0.7725 2.280611,-1.15344 3.425,-1.225 z m 12.775,0.1 c 0.20372,-0.0111 0.395273,-0.0037 0.6,0 0.204728,0.0037 0.422631,0.0036 0.625,0.025 3.081571,0.375852 5.957934,2.65102 7.675004,5.25 -2.56347,0.105427 -4.780308,0.126196 -7.850004,0.15 -1.275924,-1.098264 -2.45474,-2.259212 -3.7,-3.375 -0.290601,-0.299925 -0.593486,-0.594008 -0.875,-0.9 0.281873,-0.179376 0.560174,-0.338645 0.85,-0.475 0.869479,-0.409067 1.77746,-0.626138 2.675,-0.675 z m 21.125004,0.25 c 3.28875,0.121248 6.32,1.71 7.4,5.175 -5.03,-0.01 -10.06,-0.23 -15.1,-0.1 -0.3,-0.37 -0.915,-1.09 -1.225,-1.45 2.09,-2.4 5.63624,-3.746251 8.925,-3.625 z m -51.550004,6.6 c 5.03001,0.01 10.06,0.23 15.1,0.1 0.3,0.37 0.915,1.09 1.225,1.45 -2.09,2.400004 -5.636249,3.74625 -8.925,3.625 -3.28875,-0.121251 -6.32,-1.709996 -7.4,-5.175 z m 27.975,0.075 c 1.466568,1.263696 2.868082,2.895534 4.075,4.2 -0.281873,0.179375 -0.560173,0.338644 -0.85,0.475 -0.869479,0.409064 -1.77746,0.626132 -2.675,0.675 -0.20372,0.01109 -0.395272,0.0037 -0.6,0 -0.1802,-0.0032 -0.371472,-0.0082 -0.55,-0.025 -0.02487,-0.0028 -0.05015,0.003 -0.075,0 -3.081571,-0.375853 -5.957935,-2.651019 -7.675,-5.25 l 8.35,-0.075 z m 12.450004,0 c 1.57,1.26 2.87,2.805 4.3,4.225 -1.125,0.7725 -2.28061,1.153436 -3.425,1.225 -3.43314,0.214687 -6.720004,-2.3525 -8.550004,-5.375 2.56,-0.07 5.114994,0.055 7.675004,-0.075 z m 10.85,0.05 c 2.59956,0.01301 5.20124,0.09188 7.8,0.075 -0.36563,2.8875 -2.8284,5.211291 -5.7,5.4 -0.19144,0.01258 -0.40561,0.0069 -0.6,0 -3.21,-0.45 -5.8,-2.74 -7.55,-5.35 1.15251,-0.0675 2.2964,-0.085 3.45,-0.1 0.8652,-0.01125 1.73348,-0.02934 2.6,-0.025 z"
     id="path3420-1"
     inkscape:connector-curvature="0" />
</svg>
